<?xml version="1.0" encoding="UTF-8"?>
<svg width="644px" height="525px" viewBox="0 0 644 525" version="1.1" xmlns="http://www.w3.org/2000/svg" xmlns:xlink="http://www.w3.org/1999/xlink">
    <!-- Generator: Sketch 49 (51002) - http://www.bohemiancoding.com/sketch -->
    <title>Flowchart</title>
    <desc>Created with Sketch.</desc>
    <defs>
        <rect id="path-1" x="0" y="0" width="137" height="55.4805195"></rect>
        <linearGradient x1="50%" y1="-3.89782731e-15%" x2="50%" y2="99.8449082%" id="linearGradient-2">
            <stop stop-color="#4387FD" offset="0%"></stop>
            <stop stop-color="#4683EA" offset="100%"></stop>
        </linearGradient>
        <rect id="path-3" x="0" y="0" width="137" height="55.4805195"></rect>
        <linearGradient x1="50%" y1="-3.89783073e-15%" x2="50%" y2="99.8449958%" id="linearGradient-4">
            <stop stop-color="#4387FD" offset="0%"></stop>
            <stop stop-color="#4683EA" offset="100%"></stop>
        </linearGradient>
    </defs>
    <g id="Page-1" stroke="none" stroke-width="1" fill="none" fill-rule="evenodd">
        <g id="new-section" transform="translate(-399.000000, -336.000000)">
            <g id="Intro" transform="translate(399.000000, 71.000000)">
                <g id="Flowchart" transform="translate(0.000000, 266.000000)">
                    <g id="decision-copy-2" transform="translate(33.000000, 0.000000)">
                        <polygon id="Fill-5" stroke="#DFDFDF" fill="#E2F3EB" points="297 56 148.500935 112 0 56 148.500935 0"></polygon>
                        <text id="Do-you-have-dependen" font-family="Roboto-Medium, Roboto" font-size="12" font-weight="400" fill="#212121">
                            <tspan x="78.4072266" y="42">Do you have dependencies </tspan>
                            <tspan x="77.6484375" y="56">on specific tools/packages </tspan>
                            <tspan x="88.40625" y="70">in the Apache Hadoop/</tspan>
                            <tspan x="100.775391" y="84">Spark ecosystem?</tspan>
                        </text>
                    </g>
                    <g id="decision-copy-3" transform="translate(266.000000, 210.000000)">
                        <polygon id="Fill-5" stroke="#DFDFDF" fill="#E2F3EB" points="297 56 148.500935 112 0 56 148.500935 0"></polygon>
                        <text id="Do-you-favor-a-hands" font-family="Roboto-Medium, Roboto" font-size="12" font-weight="400" fill="#212121">
                            <tspan x="82.5527344" y="42">Do you favor a hands-on/</tspan>
                            <tspan x="95.8183594" y="56">DevOps approach to </tspan>
                            <tspan x="78.3310547" y="70">operations, or a hands-off/</tspan>
                            <tspan x="107.920898" y="84">serverless one?</tspan>
                        </text>
                    </g>
                    <g id="box-copy-2" transform="translate(0.000000, 468.000000)">
                        <g id="Rectangle-13">
                            <use fill="#FFFFFF" fill-rule="evenodd" xlink:href="#path-1"></use>
                            <rect stroke="#DFDFDF" stroke-width="1" x="0.5" y="0.5" width="136" height="54.4805195"></rect>
                        </g>
                        <text id="Cloud-Dataproc" font-family="Roboto-Regular, Roboto" font-size="12" font-weight="normal" fill="#212121">
                            <tspan x="53" y="25">Cloud</tspan>
                            <tspan x="53" y="39">Dataproc</tspan>
                        </text>
                        <g id="DataProc_128px" transform="translate(18.000000, 16.000000)">
                            <g id="BASE" fill="url(#linearGradient-2)">
                                <path d="M5.9057641,22.1982769 L0.521025641,12.8716513 C0.0996717949,12.1418462 0.0996717949,11.2426872 0.521025641,10.5128821 L5.9057641,1.18627692 C6.32713846,0.456471795 7.10582564,0.00689230769 7.94853333,0.00689230769 L18.7180103,0.00689230769 C19.5607179,0.00689230769 20.3394256,0.456471795 20.7607795,1.18627692 L26.1455179,10.5128821 C26.5668718,11.2426872 26.5668718,12.1418462 26.1455179,12.8716513 L20.7607795,22.1982769 C20.3394256,22.9280821 19.5607179,23.3776615 18.7180103,23.3776615 L7.94853333,23.3776615 C7.10582564,23.3776615 6.32713846,22.9280821 5.9057641,22.1982769 L5.9057641,22.1982769 Z" id="Shape"></path>
                            </g>
                            <g id="shadow" transform="translate(7.589744, 6.358974)" fill="#000000" opacity="0.07">
                                <polygon id="Shape" points="16.9658051 9.59827692 7.44658462 0.0790358974 4.30769231 0.205107692 3.11226667 5.56523077 4.15384615 7.38459487 0.769230769 6.87177436 0.0587692308 9.97967179 7.51815385 17.4390769 12.6496615 17.2200615"></polygon>
                            </g>
                            <g id="art" transform="translate(6.974359, 5.538462)" fill="#FFFFFF">
                                <g id="Group">
                                    <path d="M8.28668718,1.23197949 C8.28668718,1.23197949 8.28672821,1.23206154 8.28676923,1.23210256 C8.50184615,1.60471795 8.61550769,2.02996923 8.61540513,2.46201026 C8.61530256,3.11952821 8.35913846,3.7376 7.89413333,4.20244103 C7.42912821,4.66728205 6.81093333,4.92322051 6.15339487,4.92311795 C5.27675897,4.92291282 4.45965128,4.45078974 4.02098462,3.69099487 C3.80586667,3.3184 3.69224615,2.89312821 3.69232821,2.46104615 C3.69255385,1.10377436 4.79700513,-0.000266666667 6.15433846,-6.15384615e-05 C7.03095385,0.000143589744 7.84804103,0.472246154 8.28668718,1.23197949 L8.28668718,1.23197949 Z M5.11774359,3.05778462 C5.33097436,3.42711795 5.72791795,3.65659487 6.15362051,3.65671795 C6.81259487,3.6568 7.34882051,3.12077949 7.34894359,2.46178462 C7.34900513,2.2518359 7.29401026,2.04553846 7.18992821,1.86525128 C6.97675897,1.49593846 6.57981538,1.26646154 6.15407179,1.26635897 C5.49509744,1.26627692 4.95887179,1.80229744 4.95874872,2.46129231 C4.95866667,2.67130256 5.01368205,2.87753846 5.11774359,3.05778462 L5.11774359,3.05778462 Z" id="Shape"></path>
                                    <path d="M3.69230769,8.49304615 C4.16350769,8.69138462 4.59072821,9.00966154 4.92307692,9.43589744 L4.92307692,3.28205128 L3.69302564,2.4632 L3.69230769,8.49304615 L3.69230769,8.49304615 Z" id="Shape"></path>
                                    <path d="M12.3337231,7.76709744 C12.3337231,7.76709744 12.3337846,7.76717949 12.3338051,7.76722051 C12.7726359,8.52740513 12.7727385,9.47138462 12.3341333,10.2307692 C11.6552821,11.4060718 10.1468103,11.8099692 8.97144615,11.1311179 C8.59762051,10.9151795 8.2864,10.6042872 8.07148718,10.2320205 C7.63261538,9.47185641 7.63245128,8.52787692 8.07111795,7.76841026 C8.74998974,6.59312821 10.2585026,6.18923077 11.4338256,6.86808205 C11.8076308,7.08402051 12.1188308,7.39489231 12.3337231,7.76709744 L12.3337231,7.76709744 Z M9.16822564,9.59881026 C9.27220513,9.77889231 9.42317949,9.92953846 9.60486154,10.0345026 C10.1754872,10.3640821 10.9079179,10.1679795 11.2374769,9.59735385 C11.4504821,9.22857436 11.4502974,8.76990769 11.2369846,8.40036923 L11.2369436,8.40030769 C11.1330051,8.22026667 10.9820513,8.06966154 10.8003692,7.96471795 C10.2297436,7.63513846 9.49731282,7.83124103 9.16773333,8.40184615 C8.95470769,8.77066667 8.95489231,9.22929231 9.16822564,9.59881026 L9.16822564,9.59881026 Z" id="Shape"></path>
                                    <path d="M4.67210256,4.38537436 L10.1074256,7.52344615 L11.4333949,6.86781538 L6.104,3.79089231 C5.6966359,4.0998359 5.20738462,4.31066667 4.67210256,4.38537436 L4.67210256,4.38537436 Z" id="Shape"></path>
                                    <path d="M4.64057436,8.00539487 C4.64057436,8.00539487 4.64055385,8.00533333 4.64057436,8.00539487 L4.64082051,8.00582564 C4.96945641,8.57528205 5.05667692,9.23864615 4.88637949,9.87370256 C4.71608205,10.508759 4.30867692,11.0394872 3.73922051,11.3681231 C2.56385641,12.0464 1.05565128,11.6421333 0.377148718,10.4669333 C0.0482871795,9.89702564 -0.0389333333,9.23366154 0.131364103,8.59862564 C0.301641026,7.96352821 0.709066667,7.43284103 1.27852308,7.10418462 C2.45382564,6.42598974 3.96213333,6.83031795 4.64057436,8.00539487 L4.64057436,8.00539487 Z M1.47378462,9.83351795 C1.80332308,10.4043077 2.53558974,10.6005744 3.1062359,10.2712615 C3.38272821,10.1117128 3.58051282,9.85403077 3.6632,9.54572308 C3.74586667,9.23739487 3.70352821,8.91532308 3.54395897,8.63885128 L3.54381538,8.63860513 C3.2144,8.06804103 2.48213333,7.87171282 1.91150769,8.20106667 C1.6350359,8.3606359 1.43723077,8.61829744 1.35454359,8.92662564 C1.27187692,9.23497436 1.31421538,9.55704615 1.47378462,9.83351795 L1.47378462,9.83351795 Z" id="Shape"></path>
                                    <path d="M9.51950769,6.60972308 L3.83483077,9.89177436 L3.75487179,11.3582769 L8.89138462,8.39355897 C8.82748718,7.88637949 9.31669744,7.11062564 9.51950769,6.60972308 L9.51950769,6.60972308 Z" id="Shape"></path>
                                </g>
                            </g>
                        </g>
                    </g>
                    <g id="box-copy-3" transform="translate(504.000000, 468.000000)">
                        <g id="Rectangle-13">
                            <use fill="#FFFFFF" fill-rule="evenodd" xlink:href="#path-3"></use>
                            <rect stroke="#DFDFDF" stroke-width="1" x="0.5" y="0.5" width="136" height="54.4805195"></rect>
                        </g>
                        <text id="Cloud-Dataflow" font-family="Roboto-Regular, Roboto" font-size="12" font-weight="normal" fill="#212121">
                            <tspan x="53" y="25">Cloud</tspan>
                            <tspan x="53" y="39">Dataflow</tspan>
                        </text>
                        <g id="Dataflow_128px" transform="translate(17.000000, 16.000000)">
                            <g id="BASE" fill="url(#linearGradient-4)">
                                <path d="M5.95667586,22.3896414 L0.525517241,12.9826138 C0.100531034,12.2465172 0.100531034,11.3396069 0.525517241,10.6035103 L5.95667586,1.19650345 C6.38166207,0.460406897 7.16708276,0.00695172414 8.01705517,0.00695172414 L18.8793724,0.00695172414 C19.7293448,0.00695172414 20.5147655,0.460406897 20.9397517,1.19650345 L26.3709103,10.6035103 C26.7958966,11.3396069 26.7958966,12.2465172 26.3709103,12.9826138 L20.9397517,22.3896207 C20.5147655,23.1257172 19.7293448,23.5791724 18.8793724,23.5791724 L8.01705517,23.5791724 C7.16708276,23.5791931 6.38168276,23.1257379 5.95667586,22.3896414 L5.95667586,22.3896414 Z" id="Shape"></path>
                            </g>
                            <g id="shadow" transform="translate(8.896552, 5.793103)" fill="#000000" opacity="0.07">
                                <polygon id="Shape" points="16.698269 8.88790345 7.93102759 0.120662069 4.57758621 0.922386207 1.1637931 0.137896552 2.86206207 1.83618621 0.0103448276 4.79948276 0.527586207 5.31672414 0.0331241379 6.53311034 1.0676069 7.5675931 0.0129310345 8.64221379 2.63793103 11.2672138 1.16753793 11.9153586 7.26831724 18.0161379 11.517331 18.0085862"></polygon>
                            </g>
                            <g id="art" transform="translate(8.689655, 5.172414)" fill="#FFFFFF">
                                <g id="Group">
                                    <g transform="translate(0.000000, 5.793103)" id="Oval">
                                        <circle cx="8.72217931" cy="0.858206897" r="1"></circle>
                                        <circle cx="0.795062069" cy="0.858206897" r="1"></circle>
                                    </g>
                                    <g transform="translate(3.931034, 4.758621)" id="Oval">
                                        <circle cx="0.827586207" cy="0.783351724" r="1"></circle>
                                        <circle cx="0.827586207" cy="3.00202759" r="1"></circle>
                                    </g>
                                    <polygon id="Shape" points="5.87352414 2.06623448 8.14545517 0.754531034 7.04586207 0.119689655 7.0154069 0.119689655 4.75872414 1.4226 4.75866207 1.42257931 4.75862069 1.4226 2.50193793 0.119689655 2.47148276 0.119689655 1.37188966 0.754531034 3.64382069 2.06623448 0.217241379 4.03367586 0.217241379 5.42017241 1.3862069 5.42017241 1.3862069 4.67731034 4.19629655 3.03455172 4.19629655 4.24123448 5.32104828 4.24123448 5.32104828 3.03455172 8.12586207 4.67731034 8.12586207 5.42017241 9.3 5.42017241 9.3 4.03367586"></polygon>
                                    <polygon id="Shape" points="8.12586207 8.61225517 5.32104828 10.2550345 5.32104828 9.06246207 4.19629655 9.06246207 4.19629655 10.2550345 1.3862069 8.61225517 1.3862069 7.8693931 0.217241379 7.8693931 0.217241379 9.25588966 3.64688276 11.2251103 1.37188966 12.5385931 2.47146207 13.1734345 2.50193793 13.1734345 4.75866207 11.8705034 7.0154069 13.1734345 7.04586207 13.1734345 8.14545517 12.5385931 5.87044138 11.2251103 9.3 9.25588966 9.3 7.8693931 8.12586207 7.8693931"></polygon>
                                </g>
                            </g>
                        </g>
                    </g>
                    <g id="process-copy-2" transform="translate(502.000000, 362.000000)">
                        <polygon id="Fill-10" stroke="#DFDFDF" fill="#E2F3EB" points="0.722 48.5 140.722 48.5 140.722 0.5 0.722 0.5"></polygon>
                        <text id="Serverless" font-family="Roboto-Medium, Roboto" font-size="12" font-weight="400" fill="#212121">
                            <tspan x="42.78125" y="27.613">Serverless</tspan>
                        </text>
                    </g>
                    <polyline id="Path-18" stroke="#616161" points="501 386 259.552114 386 259.552114 497 139 497"></polyline>
                    <polyline id="Path-20" stroke="#616161" points="414 208.045866 414 146 67 146 67 465.881836"></polyline>
                    <g id="process-copy-3" transform="translate(190.000000, 362.000000)">
                        <polygon id="Fill-10" stroke="#DFDFDF" fill="#E2F3EB" points="0 48 140 48 140 0 0 0"></polygon>
                        <text id="DevOps" font-family="Roboto-Medium, Roboto" font-size="12" font-weight="400" fill="#212121">
                            <tspan x="49.3164062" y="28">DevOps</tspan>
                        </text>
                    </g>
                    <g id="NO-Copy" transform="translate(271.000000, 122.000000)">
                        <path d="M47.9997116,24.1837117 C47.8987116,37.4377117 37.0707116,48.1007117 23.8167116,47.9997117 C10.5627116,47.8977117 -0.100288382,37.0707117 0.000711618265,23.8167117 C0.102711618,10.5617117 10.9297116,-0.100288316 24.1837116,0.000711684229 C37.4387116,0.101711684 48.1007116,10.9297117 47.9997116,24.1837117" id="Fill-67" fill="#FF7C00"></path>
                        <text id="NO" font-family="Roboto-Medium, Roboto" font-size="13.8925" font-weight="400" fill="#FFFFFF">
                            <tspan x="14" y="29">NO</tspan>
                        </text>
                    </g>
                    <g id="YES-Copy" transform="translate(44.000000, 122.000000)">
                        <path d="M47.9997116,24.1837117 C47.8987116,37.4377117 37.0707116,48.1007117 23.8167116,47.9997117 C10.5627116,47.8977117 -0.100288382,37.0707117 0.000711618265,23.8167117 C0.102711618,10.5617117 10.9297116,-0.100288316 24.1837116,0.000711684229 C37.4387116,0.101711684 48.1007116,10.9297117 47.9997116,24.1837117" id="Fill-65" fill="#0099FF"></path>
                        <text id="YES" font-family="Roboto-Medium, Roboto" font-size="13.8925" font-weight="400" fill="#FFFFFF">
                            <tspan x="12" y="29">YES</tspan>
                        </text>
                    </g>
                    <polygon id="Fill-65" fill="#616161" points="71 462.671752 70.2835091 462 67.0006113 465.55561 63.7164909 462 63 462.671752 67.0006113 467"></polygon>
                    <polygon id="Fill-65-Copy-4" fill="#616161" points="577 462.671752 576.283509 462 573.000611 465.55561 569.716491 462 569 462.671752 573.000611 467"></polygon>
                    <polygon id="Fill-65-Copy-5" fill="#616161" points="418 204.671752 417.283509 204 414.000611 207.55561 410.716491 204 410 204.671752 414.000611 209"></polygon>
                    <polygon id="Fill-65-Copy" fill="#616161" transform="translate(140.500000, 497.000000) rotate(-270.000000) translate(-140.500000, -497.000000) " points="144.5 495.171752 143.783509 494.5 140.500611 498.05561 137.216491 494.5 136.5 495.171752 140.500611 499.5"></polygon>
                    <polygon id="Fill-65-Copy-2" fill="#616161" transform="translate(332.500000, 386.000000) rotate(-270.000000) translate(-332.500000, -386.000000) " points="336.5 384.171752 335.783509 383.5 332.500611 387.05561 329.216491 383.5 328.5 384.171752 332.500611 388.5"></polygon>
                    <polygon id="Fill-65-Copy-3" fill="#616161" transform="translate(499.500000, 386.000000) scale(-1, 1) rotate(-270.000000) translate(-499.500000, -386.000000) " points="503.5 384.171752 502.783509 383.5 499.500611 387.05561 496.216491 383.5 495.5 384.171752 499.500611 388.5"></polygon>
                    <path d="M414.69043,322.408203 L414.69043,385.970646" id="Path-21" stroke="#616161"></path>
                    <path d="M573,410 L573,465.595703" id="Path-22" stroke="#616161"></path>
                    <path d="M181.750977,112.094727 L181.750977,145.758124" id="Path-17" stroke="#616161"></path>
                </g>
            </g>
        </g>
    </g>
</svg>