<?xml version="1.0" encoding="UTF-8"?>
<svg width="980px" height="455px" viewBox="0 0 980 455" version="1.1" xmlns="http://www.w3.org/2000/svg" xmlns:xlink="http://www.w3.org/1999/xlink">
    <!-- Generator: Sketch 46.2 (44496) - http://www.bohemiancoding.com/sketch -->
    <title>diagram_pubsub</title>
    <desc>Created with Sketch.</desc>
    <defs>
        <rect id="path-1" x="0.981696438" y="0" width="127.176716" height="55.4805195"></rect>
        <rect id="path-2" x="0.985597216" y="0" width="173" height="55.4805195"></rect>
        <rect id="path-3" x="0.949014145" y="0" width="126.929945" height="55.4805195"></rect>
        <rect id="path-4" x="0.949014145" y="0" width="185.050986" height="55.4805195"></rect>
        <rect id="path-5" x="0.994563482" y="0" width="127.273871" height="55.4805195"></rect>
        <rect id="path-6" x="0" y="0" width="173" height="55.4805195"></rect>
        <rect id="path-7" x="0" y="0" width="111" height="56"></rect>
        <linearGradient x1="50%" y1="-3.89783073e-15%" x2="50%" y2="99.8449958%" id="linearGradient-8">
            <stop stop-color="#4387FD" offset="0%"></stop>
            <stop stop-color="#4683EA" offset="100%"></stop>
        </linearGradient>
        <rect id="path-9" x="0" y="0" width="111" height="56"></rect>
        <rect id="path-10" x="0" y="0" width="167" height="56"></rect>
        <rect id="path-11" x="0" y="0" width="167" height="56"></rect>
        <linearGradient x1="50%" y1="0.000438854029%" x2="50%" y2="99.8448212%" id="linearGradient-12">
            <stop stop-color="#4387FD" offset="0%"></stop>
            <stop stop-color="#4683EA" offset="100%"></stop>
        </linearGradient>
        <path d="M5.70040702,22.4211983 L0.31600214,13.0009121 C-0.105326904,12.2637774 -0.105326904,11.35559 0.31600214,10.6184554 L5.70030447,1.19818985 C6.12161015,0.461010586 6.90027027,0.00687382672 7.74295493,0.00685792812 L18.5117442,0.00685792812 C19.3544288,0.00687382672 20.133089,0.461010586 20.5543947,1.19818985 L25.938697,10.6184554 C26.360026,11.35559 26.360026,12.2637774 25.938697,13.0009121 L20.5543947,22.4211776 C20.133089,23.1583569 19.3544288,23.6124936 18.5117442,23.6125095 L7.74313953,23.6125095 C6.9004298,23.6125275 6.12173258,23.1583952 5.70040702,22.4211983 L5.70040702,22.4211983 Z" id="path-13"></path>
        <rect id="path-15" x="0" y="0" width="167" height="56"></rect>
        <path d="M5.81628283,21.9346667 L0.513131313,12.7493535 C0.0981616162,12.0306061 0.0981616162,11.1450707 0.513131313,10.4263232 L5.81628283,1.2410303 C6.23125253,0.522282828 6.99816162,0.0795151515 7.82810101,0.0795151515 L18.434404,0.0795151515 C19.2643434,0.0795151515 20.0312525,0.522282828 20.4462222,1.2410303 L25.7493737,10.4263232 C26.1643434,11.1450707 26.1643434,12.0306061 25.7493737,12.7493535 L20.4462222,21.9346465 C20.0312525,22.6533939 19.2643434,23.0961616 18.434404,23.0961616 L7.82810101,23.0961616 C6.99816162,23.0961818 6.23127273,22.6534141 5.81628283,21.9346667 L5.81628283,21.9346667 Z" id="path-16"></path>
        <rect id="path-18" x="0" y="0" width="101" height="56"></rect>
        <rect id="path-19" x="0" y="0" width="118" height="56"></rect>
    </defs>
    <g id="Page-1" stroke="none" stroke-width="1" fill="none" fill-rule="evenodd">
        <g id="cloud-pub/sub" transform="translate(-230.000000, -2168.000000)">
            <g id="Group-31" transform="translate(230.000000, 2066.000000)">
                <g id="diagram_pubsub" transform="translate(0.000000, 102.000000)">
                    <rect id="Rectangle-89-Copy-3" fill="#E2F3EC" x="500" y="0" width="251" height="455"></rect>
                    <rect id="Rectangle-89-Copy" fill="#E1F6FD" x="335" y="0" width="157" height="455"></rect>
                    <rect id="Rectangle-89" fill="#EAEDEF" x="179" y="0" width="148" height="455"></rect>
                    <g id="bott-connection" transform="translate(335.647783, 259.344156) scale(1, -1) translate(-335.647783, -259.344156) translate(111.147783, 132.844156)" stroke-linecap="square" stroke="#616161">
                        <g id="L-connection" transform="translate(0.000000, 0.740260)">
                            <path d="M0,0.5 L43.3467579,0.5" id="Line"></path>
                            <path d="M400.352076,29.4872535 L448.600212,29.4872535" id="Line-Copy-6"></path>
                            <path d="M0,251.5 L43.3467579,251.5" id="Line-Copy-3"></path>
                            <path d="M400.352076,200.487253 L448.600212,200.487253" id="Line-Copy-8"></path>
                            <path d="M43.7346059,0.60313322 L43.7346059,250.604166" id="Line"></path>
                            <path d="M399.734606,29.602918 L399.734606,200.604324" id="Line-Copy-5"></path>
                        </g>
                    </g>
                    <g id="connection" transform="translate(109.000000, 253.000000)">
                        <path d="M0.57820197,5.2012987 L93.5004801,5.2012987" id="Line" stroke="#616161" stroke-linecap="square"></path>
                        <polygon id="Fill-17" fill="#616161" transform="translate(91.642358, 5.219925) rotate(-90.000000) translate(-91.642358, -5.219925) " points="96.3714717 3.07236691 95.524984 2.2840812 91.642936 6.45899029 87.760888 2.2840812 86.9132439 3.07236691 91.642936 8.15576951"></polygon>
                    </g>
                    <g id="connection-copy-2" transform="translate(427.000000, 180.000000)">
                        <path d="M0.57820197,77.3852814 L133.116976,77.3852814" id="Line" stroke="#616161" stroke-linecap="square"></path>
                        <polygon id="Fill-17" fill="#616161" points="129.738326 72.5 129 73.3464877 132.910313 77.2285357 129 81.1105837 129.738326 81.9582278 134.499554 77.2285357"></polygon>
                        <polygon id="Fill-17-Copy-2" fill="#616161" points="129.738326 171 129 171.846488 132.910313 175.728536 129 179.610584 129.738326 180.458228 134.499554 175.728536"></polygon>
                        <polygon id="Fill-17-Copy" fill="#616161" points="129.738114 -2.84217094e-14 129 0.846487685 132.909188 4.72853571 129 8.61058374 129.738114 9.45822783 134.497972 4.72853571"></polygon>
                    </g>
                    <g id="connection-copy" transform="translate(313.000000, 253.000000)">
                        <path d="M1.47434726,5.2012987 L34.3613444,5.2012987" id="Line" stroke="#616161" stroke-linecap="square"></path>
                        <polygon id="Fill-17" fill="#616161" transform="translate(32.642358, 5.219925) rotate(-90.000000) translate(-32.642358, -5.219925) " points="37.3714717 3.07236691 36.524984 2.2840812 32.642936 6.45899029 28.760888 2.2840812 27.9132439 3.07236691 32.642936 8.15576951"></polygon>
                    </g>
                    <g id="connection-copy-3" transform="translate(617.500000, 133.000000) rotate(-90.000000) translate(-617.500000, -133.000000) translate(594.500000, 70.500000)">
                        <path d="M22.9196597,5.15584416 L43.7831424,5.15584416" id="Line" stroke="#616161" stroke-linecap="square"></path>
                        <path d="M0.490350588,64.1558442 L22.7831424,64.1558442" id="Line-Copy-14" stroke="#616161" stroke-linecap="square"></path>
                        <path d="M22.7831424,119.500351 L22.7831424,5.15584416" id="Line-Copy-13" stroke="#616161" stroke-linecap="square"></path>
                        <path d="M22.9196597,120.155844 L43.7831424,120.155844" id="Line-Copy-10" stroke="#616161" stroke-linecap="square"></path>
                        <polygon id="Fill-17" fill="#616161" transform="translate(42.757477, 5.229114) rotate(-90.000000) translate(-42.757477, -5.229114) " points="47.4865908 3.08155547 46.6401031 2.29326976 42.7580551 6.46817885 38.8760071 2.29326976 38.028363 3.08155547 42.7580551 8.16495807"></polygon>
                        <polygon id="Fill-17-Copy-3" fill="#616161" transform="translate(42.780375, 120.129138) rotate(-90.000000) translate(-42.780375, -120.129138) " points="47.5094886 117.98158 46.6630009 117.193294 42.7809529 121.368203 38.8989049 117.193294 38.0512608 117.98158 42.7809529 123.064982"></polygon>
                    </g>
                    <g id="box" transform="translate(0.000000, 356.000000)">
                        <g id="Rectangle-13">
                            <use fill="#FFFFFF" fill-rule="evenodd" xlink:href="#path-1"></use>
                            <rect stroke="#E0E0E0" stroke-width="1" x="1.48169644" y="0.5" width="126.176716" height="54.4805195"></rect>
                        </g>
                        <text id="Databases" font-family="Roboto-Regular, Roboto" font-size="12" font-weight="normal" fill="#212121">
                            <tspan x="47" y="32">Databases</tspan>
                        </text>
                        <path d="M34,17 L26,17 L20,23 L20,35 C20,36.1 20.9,37 22,37 L34,37 C35.1,37 36,36.1 36,35 L36,19 C36,17.9 35.1,17 34,17 L34,17 Z M28,23 L26,23 L26,19 L28,19 L28,23 L28,23 Z M31,23 L29,23 L29,19 L31,19 L31,23 L31,23 Z M34,23 L32,23 L32,19 L34,19 L34,23 L34,23 Z" id="Shape" fill="#616161"></path>
                    </g>
                    <g id="box-copy" transform="translate(794.000000, 328.000000)">
                        <g id="Rectangle-13">
                            <use fill="#FFFFFF" fill-rule="evenodd" xlink:href="#path-2"></use>
                            <rect stroke="#E0E0E0" stroke-width="1" x="1.48559722" y="0.5" width="172" height="54.4805195"></rect>
                        </g>
                        <text id="Caching-&amp;-Serving" font-family="Roboto-Regular, Roboto" font-size="14" font-weight="normal" fill="#616161">
                            <tspan x="47" y="32">Caching &amp; Serving</tspan>
                        </text>
                        <path d="M23,21 L21,21 L21,35 L23,35 L23,37 L33,37 L33,35 L35,35 L35,21 L33,21 L33,19 L23,19 L23,21 Z M19,19 L37,19 L37,37 L19,37 L19,19 Z M23,22 L25,22 L25,27.0000039 L23,27.0000039 L23,22 Z M31,29 L33,29 L33,34 L31,34 L31,29 Z M27,22 L33,22 L33,27.0000039 L27,27.0000039 L27,22 Z M29,23 L29,26.0000039 L31,26.0000039 L31,23 L29,23 Z M23,29 L29,29 L29,34 L23,34 L23,29 Z M25,30 L25,33 L27,33 L27,30 L25,30 Z" id="Shape" fill="#616161"></path>
                    </g>
                    <g id="box" transform="translate(0.000000, 231.000000)">
                        <g id="Rectangle-13">
                            <use fill="#FFFFFF" fill-rule="evenodd" xlink:href="#path-3"></use>
                            <rect stroke="#E0E0E0" stroke-width="1" x="1.44901414" y="0.5" width="125.929945" height="54.4805195"></rect>
                        </g>
                        <text id="Devices" font-family="Roboto-Regular, Roboto" font-size="12" font-weight="normal" fill="#212121">
                            <tspan x="47" y="31">Devices</tspan>
                        </text>
                        <path d="M30.8768473,14 L19.3128079,14 C18.0407635,14 17,15.0402597 17,16.3116883 L17,37.1168831 C17,38.3883117 18.0407635,39.4285714 19.3128079,39.4285714 L30.8768473,39.4285714 C32.1488916,39.4285714 33.1896552,38.3883117 33.1896552,37.1168831 L33.1896552,16.3116883 C33.1896552,15.0402597 32.1488916,14 30.8768473,14 L30.8768473,14 Z M30.8768473,34.8051948 L19.3128079,34.8051948 L19.3128079,18.6233766 L30.8768473,18.6233766 L30.8768473,34.8051948 L30.8768473,34.8051948 Z" id="Shape" fill="#616161"></path>
                    </g>
                    <g id="box-copy-2" transform="translate(794.000000, 231.000000)">
                        <g id="Rectangle-13">
                            <use fill="#FFFFFF" fill-rule="evenodd" xlink:href="#path-4"></use>
                            <rect stroke="#E0E0E0" stroke-width="1" x="1.44901414" y="0.5" width="184.050986" height="54.4805195"></rect>
                        </g>
                        <text id="Predictive-Analytics" font-family="Roboto-Regular, Roboto" font-size="14" font-weight="normal" fill="#616161">
                            <tspan x="47" y="31">Predictive Analytics</tspan>
                        </text>
                        <path d="M16,24.9999999 L22.4285714,18.5714286 L26.2857143,22.4285714 L32.7142857,16 L34,16 L34,18.5714286 L26.2857143,26.2857142 L22.4285714,22.4285714 L16,28.8571428 L16,24.9999999 Z M16,31.4668317 L18,29.4752196 L18,33.9999998 L16,33.9999999 L16,31.4668317 Z M20,27.9920653 L22,25.9839648 L22,33.9999999 L20,33.9999999 L20,27.9920653 Z M24,26.6058349 L26,28.4854124 L26.0000001,34 L24,34 L24,26.6058349 Z M28.0046387,27.9551391 L30,25.8911132 L30,33.9999999 L28.0046387,33.9999999 L28.0046387,27.9551391 Z M32,23.6615862 L34,21.6533813 L34,33.9999999 L32,33.9999995 L32,23.6615862 Z" id="Shape" fill="#616161"></path>
                    </g>
                    <g id="Group-30" transform="translate(740.000000, 255.000000)">
                        <path d="M5.60714286,3.5 L55.3928571,3.5" id="Line-Copy-9" stroke="#616161" stroke-linecap="square"></path>
                        <circle id="Oval-25" fill="#616161" cx="3.5" cy="3.5" r="3.5"></circle>
                    </g>
                    <g id="Group-30-Copy" transform="translate(740.000000, 353.000000)">
                        <path d="M5.60714286,3.5 L55.3928571,3.5" id="Line-Copy-9" stroke="#616161" stroke-linecap="square"></path>
                        <circle id="Oval-25" fill="#616161" cx="3.5" cy="3.5" r="3.5"></circle>
                    </g>
                    <g id="box" transform="translate(0.000000, 104.000000)">
                        <g id="Rectangle-13">
                            <use fill="#FFFFFF" fill-rule="evenodd" xlink:href="#path-5"></use>
                            <rect stroke="#E0E0E0" stroke-width="1" x="1.49456348" y="0.5" width="126.273871" height="54.4805195"></rect>
                        </g>
                        <text id="Applications" font-family="Roboto-Regular, Roboto" font-size="12" font-weight="normal" fill="#212121">
                            <tspan x="47" y="31">Applications</tspan>
                        </text>
                        <path d="M33,19 L19,19 C17.9,19 17,19.9 17,21 L17,33 C17,34.1 17.9,35 19,35 L33,35 C34.1,35 35,34.1 35,33 L35,21 C35,19.9 34.1,19 33,19 L33,19 Z M28,33 L19,33 L19,29 L28,29 L28,33 L28,33 Z M28,28 L19,28 L19,24 L28,24 L28,28 L28,28 Z M33,33 L29,33 L29,24 L33,24 L33,33 L33,33 Z" id="Shape" fill="#616161"></path>
                    </g>
                    <g id="box-copy-3" transform="translate(796.000000, 106.000000)">
                        <g id="Rectangle-13">
                            <use fill="#FFFFFF" fill-rule="evenodd" xlink:href="#path-6"></use>
                            <rect stroke="#E0E0E0" stroke-width="1" x="0.5" y="0.5" width="172" height="54.4805195"></rect>
                        </g>
                        <text id="Data-Warehouse" font-family="Roboto-Regular, Roboto" font-size="14" font-weight="normal" fill="#616161">
                            <tspan x="46" y="31">Data Warehouse</tspan>
                        </text>
                        <path d="M19,27 L19,25 L17.9950893,25 C16.8932319,25 16,24.1132936 16,23.0018986 L16,18.9981014 C16,17.8945804 16.8926228,17 17.9950893,17 L32.0049107,17 C33.1067681,17 34,17.8867064 34,18.9981014 L34,23.0018986 C34,24.1054196 33.1073772,25 32.0049107,25 L23,25 L23,27 L32.0049107,27 C33.1067681,27 34,27.8867064 34,28.9981014 L34,33.0018986 C34,34.1054196 33.1073772,35 32.0049107,35 L17.9950893,35 C16.8932319,35 16,34.1132936 16,33.0018986 L16,28.9981014 C16,27.8945804 16.8926228,27 17.9950893,27 L19,27 Z M21,23 C22.1045695,23 23,22.1045695 23,21 C23,19.8954305 22.1045695,19 21,19 C19.8954305,19 19,19.8954305 19,21 C19,22.1045695 19.8954305,23 21,23 Z M21,33 C22.1045695,33 23,32.1045695 23,31 C23,29.8954305 22.1045695,29 21,29 C19.8954305,29 19,29.8954305 19,31 C19,32.1045695 19.8954305,33 21,33 Z" id="Shape" fill="#616161"></path>
                    </g>
                    <g id="Group-7" transform="translate(204.000000, 230.000000)">
                        <g id="Group-3-Copy-3">
                            <g id="Rectangle-3-Copy">
                                <use fill="#FFFFFF" fill-rule="evenodd" xlink:href="#path-7"></use>
                                <rect stroke="#E0E0E0" stroke-width="1" x="0.5" y="0.5" width="110" height="55"></rect>
                            </g>
                            <text id="Cloud-Pub/Sub" font-family="Roboto-Regular, Roboto" font-size="12" font-weight="normal" fill="#212121">
                                <tspan x="51" y="25">Cloud </tspan>
                                <tspan x="51" y="39">Pub/Sub</tspan>
                            </text>
                        </g>
                        <g id="PubSub_128px" transform="translate(16.000000, 16.000000)">
                            <g id="BASE" fill="url(#linearGradient-8)">
                                <path d="M5.97210446,22.649986 L0.526878402,13.1335744 C0.100791423,12.3889186 0.100791423,11.4714628 0.526878402,10.726807 L5.97210446,1.21041628 C6.39819144,0.465760465 7.18564647,0.00703255814 8.03782043,0.00703255814 L18.9282725,0.00703255814 C19.7804465,0.00703255814 20.5679015,0.465760465 20.9939885,1.21041628 L26.4392146,10.726807 C26.8653015,11.4714628 26.8653015,12.3889186 26.4392146,13.1335744 L20.9939885,22.6499651 C20.5679015,23.3946209 19.7804465,23.8533488 18.9282725,23.8533488 L8.03782043,23.8533488 C7.18564647,23.8533698 6.39821218,23.3946419 5.97210446,22.649986 L5.97210446,22.649986 Z" id="Shape"></path>
                            </g>
                            <g id="shadow" transform="translate(8.347826, 6.260870)" fill="#000000" opacity="0.07">
                                <polygon id="Shape" points="16.6650333 9.21000834 10.3530359 2.77724567 9.19159345 3.02288927 6.29637406 0.0722766431 5.36993636 1.83813425 4.86741128 3.88075261 5.71777429 4.74740553 4.08449837 5.08747148 1.84478613 2.8049076 0.324204617 4.29485311 3.12437528 7.14861867 0.156352593 9.55300416 8.12521959 17.6743569 12.0074866 17.6359656"></polygon>
                            </g>
                            <g id="art" transform="translate(7.304348, 5.217391)" fill="#FFFFFF">
                                <g id="Group">
                                    <ellipse id="Oval" cx="11.0335814" cy="3.90891921" rx="1.16273084" ry="1.0630682"></ellipse>
                                    <ellipse id="Oval" cx="1.63375935" cy="3.90891921" rx="1.16273084" ry="1.0630682"></ellipse>
                                    <ellipse id="Oval" cx="6.33367037" cy="11.3516546" rx="1.1629274" ry="1.06324791"></ellipse>
                                    <g transform="translate(1.310415, 1.397776)" id="Rectangle-path">
                                        <rect transform="translate(7.357329, 6.258979) rotate(30.000728) translate(-7.357329, -6.258979) " x="4.6438914" y="5.73724016" width="5.42687514" height="1"></rect>
                                        <rect transform="translate(2.657652, 6.206338) rotate(149.999272) translate(-2.657652, -6.206338) " x="-0.0563258861" y="5.68460323" width="5.42687514" height="1"></rect>
                                        <rect x="4.48646633" y="0.0302318879" width="1.07360081" height="4.96182358"></rect>
                                    </g>
                                    <ellipse id="Oval" cx="6.33367037" cy="6.389831" rx="1.87878504" ry="1.71774632"></ellipse>
                                    <ellipse id="Oval" cx="1.63375935" cy="8.87074279" rx="1.47594176" ry="1.34943247"></ellipse>
                                    <ellipse id="Oval" cx="11.0335814" cy="8.87074279" rx="1.47594176" ry="1.34943247"></ellipse>
                                    <ellipse id="Oval" cx="6.33367037" cy="1.42800742" rx="1.47620384" ry="1.34967208"></ellipse>
                                </g>
                            </g>
                        </g>
                    </g>
                    <g id="Group-7-Copy" transform="translate(349.000000, 230.000000)">
                        <g id="Group-3-Copy-3">
                            <g id="Rectangle-3-Copy">
                                <use fill="#FFFFFF" fill-rule="evenodd" xlink:href="#path-9"></use>
                                <rect stroke="#E0E0E0" stroke-width="1" x="0.5" y="0.5" width="110" height="55"></rect>
                            </g>
                            <g id="Dataflow_128px" transform="translate(16.000000, 16.000000)">
                                <g id="BASE" fill="url(#linearGradient-8)">
                                    <path d="M5.91587671,22.7394795 L0.521917808,13.1854671 C0.0998424658,12.4378691 0.0998424658,11.5167883 0.521917808,10.7691902 L5.91587671,1.21519881 C6.33795205,0.467600754 7.11799315,0.00706034483 7.96214384,0.00706034483 L18.7500616,0.00706034483 C19.5942123,0.00706034483 20.3742534,0.467600754 20.7963288,1.21519881 L26.1902877,10.7691902 C26.612363,11.5167883 26.612363,12.4378691 26.1902877,13.1854671 L20.7963288,22.7394585 C20.3742534,23.4870566 19.5942123,23.947597 18.7500616,23.947597 L7.96214384,23.947597 C7.11799315,23.947618 6.3379726,23.4870776 5.91587671,22.7394795 L5.91587671,22.7394795 Z" id="Shape"></path>
                                </g>
                                <g id="shadow" transform="translate(9.230769, 5.538462)" fill="#000000" opacity="0.07">
                                    <polygon id="Shape" points="16.3352631 9.06928923 7.75861394 0.12312456 4.47807346 0.941210415 1.13849325 0.140710767 2.79984333 1.87365939 0.01011994 4.89743139 0.516116942 5.42522871 0.032404048 6.66643913 1.04439805 7.72203378 0.012649925 8.8185855 2.58058471 11.4971569 1.14215667 12.1585292 7.11031034 18.3838142 11.2669543 18.3761084"></polygon>
                                </g>
                                <g id="art" transform="translate(8.307692, 5.538462)" fill="#FFFFFF">
                                    <g id="Group">
                                        <g transform="translate(0.000000, 5.632184)" id="Oval">
                                            <ellipse cx="8.38671088" cy="0.834367816" rx="1" ry="1"></ellipse>
                                            <ellipse cx="0.764482759" cy="0.834367816" rx="1" ry="1"></ellipse>
                                        </g>
                                        <g transform="translate(3.779841, 4.626437)" id="Oval">
                                            <ellipse cx="0.795755968" cy="0.761591954" rx="1" ry="1"></ellipse>
                                            <ellipse cx="0.795755968" cy="2.91863793" rx="1" ry="1"></ellipse>
                                        </g>
                                        <polygon id="Shape" points="5.64761936 2.00883908 7.83216844 0.733571839 6.77486737 0.116364943 6.74558355 0.116364943 4.57569629 1.38308333 4.5756366 1.38306322 4.57559682 1.38308333 2.40570955 0.116364943 2.37642573 0.116364943 1.31912467 0.733571839 3.50367374 2.00883908 0.208885942 3.92162931 0.208885942 5.26961207 1.33289125 5.26961207 1.33289125 4.54738506 4.03490053 2.95025862 4.03490053 4.12342241 5.11639257 4.12342241 5.11639257 2.95025862 7.81332891 4.54738506 7.81332891 5.26961207 8.94230769 5.26961207 8.94230769 3.92162931"></polygon>
                                        <polygon id="Shape" points="7.81332891 8.37302586 5.11639257 9.97017241 5.11639257 8.81072701 4.03490053 8.81072701 4.03490053 9.97017241 1.33289125 8.37302586 1.33289125 7.65079885 0.208885942 7.65079885 0.208885942 8.99878161 3.50661804 10.9133017 1.31912467 12.1902989 2.37640584 12.8075057 2.40570955 12.8075057 4.5756366 11.5407672 6.74558355 12.8075057 6.77486737 12.8075057 7.83216844 12.1902989 5.64465517 10.9133017 8.94230769 8.99878161 8.94230769 7.65079885 7.81332891 7.65079885"></polygon>
                                    </g>
                                </g>
                            </g>
                            <text id="Cloud-Dataflow" font-family="Roboto-Regular, Roboto" font-size="12" font-weight="normal" fill="#212121">
                                <tspan x="51" y="25">Cloud </tspan>
                                <tspan x="51" y="39">Dataflow</tspan>
                            </text>
                        </g>
                    </g>
                    <g id="Group-7-Copy-2" transform="translate(562.000000, 328.000000)">
                        <g id="Group-3-Copy-3">
                            <g id="Rectangle-3-Copy">
                                <use fill="#FFFFFF" fill-rule="evenodd" xlink:href="#path-10"></use>
                                <rect stroke="#E0E0E0" stroke-width="1" x="0.5" y="0.5" width="166" height="55"></rect>
                            </g>
                            <g id="BigTable_128px" transform="translate(15.748252, 16.000000)">
                                <g id="BASE" fill="url(#linearGradient-8)">
                                    <path d="M6.08680761,22.2646593 L0.536997886,12.9101431 C0.102727273,12.1781555 0.102727273,11.2763077 0.536997886,10.5443201 L6.08680761,1.1898244 C6.52107822,0.457836842 7.32365751,0.00691291866 8.19219873,0.00691291866 L19.2918182,0.00691291866 C20.1603594,0.00691291866 20.9629387,0.457836842 21.3972093,1.1898244 L26.947019,10.5443201 C27.3812896,11.2763077 27.3812896,12.1781555 26.947019,12.9101431 L21.3972093,22.2646388 C20.9629387,22.9966263 20.1603594,23.4475502 19.2918182,23.4475502 L8.19219873,23.4475502 C7.32365751,23.4475708 6.52107822,22.9966469 6.08680761,22.2646593 L6.08680761,22.2646593 Z" id="Shape"></path>
                                </g>
                                <g id="shadow" transform="translate(6.545455, 5.454545)" fill="#000000" opacity="0.07">
                                    <polygon id="Shape" points="20.1286444 8.45656057 12.941559 1.40697487 12.6763062 3.46347824 11.2493667 2.06381736 6.2779688 0.0670136874 9.05641033 2.79232033 5.69157014 1.23285598 0.0795163636 3.82011359 1.60209646 5.31356445 1.49855311 11.1073103 8.84719923 18.315345 14.3751479 18.3457263"></polygon>
                                </g>
                                <g id="art" transform="translate(6.545455, 4.363636)" fill="#FFFFFF">
                                    <g id="Group">
                                        <g id="Shape">
                                            <path d="M11.1970251,3.61172045 L11.2011963,7.84094318 C11.2012797,7.93215 11.1517059,8.01646364 11.0711824,8.06205682 L10.3714348,8.45828182 L10.3686818,4.08092727 C10.3685775,3.8988 10.2694508,3.73056136 10.108654,3.63949773 L6.62745561,1.66827273 C6.08679465,1.36227273 5.73698342,0.809488636 5.69193529,0.203993182 L10.9367471,3.17033182 C11.0976481,3.26133409 11.1968374,3.42957273 11.1970251,3.61172045 L11.1970251,3.61172045 Z"></path>
                                            <path d="M12.4569337,8.97529091 L8.72459198,11.0934409 C8.64411016,11.1391159 8.54487914,11.1391568 8.46433476,11.0935636 L7.76458717,10.6973386 L11.6284444,8.50632955 C11.7891995,8.41516364 11.8882011,8.24686364 11.8882011,8.06475682 L11.8882219,4.12232727 C11.8880968,3.51012273 12.2012856,2.93659773 12.7134369,2.59557955 L12.7165444,8.53355455 C12.7166278,8.71568182 12.6176888,8.88406364 12.4569337,8.97529091 L12.4569337,8.97529091 Z"></path>
                                            <path d="M8.35081765,12.7272068 L4.61430481,10.6161341 C4.53371872,10.5706023 4.4840615,10.48635 4.4840615,10.3951432 L4.4840615,9.60267273 L8.3506508,11.7890182 C8.51151016,11.8799795 8.7096385,11.8799182 8.87043529,11.7888545 L12.3516337,9.81765 C12.8921487,9.511425 13.5551695,9.49068409 14.112369,9.75518182 L8.87068556,12.7268182 C8.70988877,12.8179841 8.51173957,12.8181273 8.35081765,12.7272068 L8.35081765,12.7272068 Z"></path>
                                            <path d="M2.98479305,11.1155523 L2.98062193,6.88632955 C2.9805385,6.79512273 3.0301123,6.71080909 3.11063583,6.66521591 L3.81038342,6.26899091 L3.81313636,10.6463455 C3.81324064,10.8284727 3.91236738,10.9967114 4.07316417,11.087775 L7.55434171,13.059 C8.09500267,13.365 8.4448139,13.9177841 8.48986203,14.5232795 L3.24507112,11.5569205 C3.08417005,11.4659386 2.98498075,11.2977 2.98479305,11.1155523 L2.98479305,11.1155523 Z"></path>
                                            <path d="M1.72488449,5.75198182 L5.4572262,3.63383182 C5.53770802,3.58815682 5.63693904,3.58811591 5.71748342,3.63370909 L6.41723102,4.02993409 L2.5533738,6.22094318 C2.39261872,6.31210909 2.29361711,6.48040909 2.29361711,6.66251591 L2.29359626,10.6049455 C2.29372139,11.21715 1.98053262,11.790675 1.46838128,12.1316932 L1.4652738,6.19371818 C1.46519037,6.01157045 1.56412941,5.84320909 1.72488449,5.75198182 L1.72488449,5.75198182 Z"></path>
                                            <path d="M5.83100053,2.00006591 L9.56751337,4.11111818 C9.64809947,4.15665 9.69775668,4.24090227 9.69775668,4.33210909 L9.69775668,5.12457955 L5.83114652,2.93823409 C5.67028717,2.84727273 5.47215882,2.84733409 5.31134118,2.93839773 L1.83014278,4.90960227 C1.28962781,5.21582727 0.626606952,5.23656818 0.0694074866,4.97207045 L5.31111176,2.00043409 C5.47190856,1.90928864 5.67007861,1.90914545 5.83100053,2.00006591 L5.83100053,2.00006591 Z"></path>
                                        </g>
                                        <g transform="translate(4.379679, 4.295455)" id="Shape">
                                            <path d="M2.70966578,4.1535 C2.66040481,4.1535 2.61087273,4.14092045 2.56670053,4.11588409 L0.102296791,2.720475 L0.102296791,3.32918182 L2.70966578,4.80565227 L5.31718075,3.32907955 L5.31718075,2.72039318 L2.85263102,4.11590455 C2.80843797,4.14092045 2.75892674,4.1535 2.70966578,4.1535 L2.70966578,4.1535 Z"></path>
                                            <path d="M2.85263102,5.37252955 C2.80843797,5.39756591 2.75892674,5.41014545 2.70966578,5.41014545 C2.66040481,5.41014545 2.61087273,5.39756591 2.56670053,5.37252955 L0.102296791,3.97701818 L0.102296791,4.42728409 C0.102296791,4.52391136 0.154852941,4.613175 0.240173262,4.66146818 L2.57187273,5.98178864 C2.65717219,6.03008182 2.76230535,6.03008182 2.84760481,5.98178864 L5.17932513,4.66146818 C5.2646246,4.613175 5.31718075,4.52389091 5.31718075,4.42728409 L5.31718075,3.97693636 L2.85263102,5.37252955 L2.85263102,5.37252955 Z"></path>
                                            <path d="M2.70966578,3.54902727 L5.31718075,2.07259773 L5.31718075,1.78662273 C5.31718075,1.68999545 5.2646246,1.60073182 5.17932513,1.55243864 L2.84760481,0.232118182 C2.76230535,0.183804545 2.65717219,0.183804545 2.57187273,0.232118182 L0.240173262,1.55243864 C0.154873797,1.60073182 0.102296791,1.69001591 0.102296791,1.78662273 L0.102296791,2.07265909 L2.70966578,3.54902727 L2.70966578,3.54902727 Z"></path>
                                        </g>
                                    </g>
                                </g>
                            </g>
                            <text id="Cloud-Bigtable" font-family="Roboto-Regular, Roboto" font-size="12" font-weight="normal" fill="#212121">
                                <tspan x="51" y="31">Cloud Bigtable</tspan>
                            </text>
                        </g>
                    </g>
                    <g id="Group-7-Copy-3" transform="translate(562.000000, 228.000000)">
                        <g id="Group-3-Copy-3">
                            <g id="Rectangle-3-Copy">
                                <use fill="#FFFFFF" fill-rule="evenodd" xlink:href="#path-11"></use>
                                <rect stroke="#E0E0E0" stroke-width="1" x="0.5" y="0.5" width="166" height="55"></rect>
                            </g>
                            <text id="Cloud-Machine-Learni" font-family="Roboto-Regular, Roboto" font-size="12" font-weight="normal" fill="#212121">
                                <tspan x="51" y="25">Cloud Machine </tspan>
                                <tspan x="51" y="39">Learning</tspan>
                            </text>
                            <g id="Machine-Learning_128px" transform="translate(16.000000, 16.000000)">
                                <g id="Machine-Learning">
                                    <path d="M5.90542074,22.4211983 L0.520995349,13.0009121 C0.0996663058,12.2637774 0.0996663058,11.35559 0.520995349,10.6184554 L5.90542074,1.19818985 C6.32672953,0.461013715 7.10538769,0.00687810056 7.94807121,0.00685792812 L18.7168605,0.00685792812 C19.559544,0.00687810056 20.3382021,0.461013715 20.7595109,1.19818985 L26.1439979,10.6183932 C26.5653269,11.3555279 26.5653269,12.2637152 26.1439979,13.0008499 L20.7595725,22.4211154 C20.3382637,23.1582916 19.5596055,23.6124272 18.716922,23.6124474 L7.94807121,23.6124474 C7.10540461,23.6124443 6.32675038,23.1583425 5.90542074,22.4211983 L5.90542074,22.4211983 Z" id="Shape" fill="url(#linearGradient-12)"></path>
                                    <g id="Clipped" transform="translate(0.205116, 0.000000)">
                                        <mask id="mask-14" fill="white">
                                            <use xlink:href="#path-13"></use>
                                        </mask>
                                        <g id="Shape"></g>
                                        <polygon id="Shape" fill="#000000" opacity="0.07" mask="url(#mask-14)" points="26.126686 15.5132135 16.4605814 5.74947146 13.9542656 7.03797463 12.6893135 5.76024524 8.3072093 8.33932347 9.17895349 9.21987315 6.82011628 12.6902748 7.89697674 13.7780127 9.75799674 17.8376575 15.6550898 23.7943171 20.1013953 23.8266385"></polygon>
                                    </g>
                                    <polygon id="Shape" fill="#FFFFFF" points="16.5996502 13.8816068 17.1996153 12.845666 19.5065581 12.845666 20.1013953 11.8097252 18.5550237 9.11627907 16.1479842 9.11627907 15.4520247 7.87315011 14.7683721 7.87315011 14.7683721 7.04439746 15.930766 7.04439746 16.6267256 8.28752643 18.079154 8.28752643 16.6519549 5.8012685 13.7427907 5.8012685 13.7427907 9.32346723 14.9777958 9.32346723 15.4563321 10.1522199 13.7427907 10.1522199 13.7427907 11.8097252 15.300854 11.8097252 16.011787 10.5665962 17.9238809 10.5665962 18.3979047 11.3953488 16.4851953 11.3953488 15.7742623 12.6384778 13.7427907 12.6384778 13.7427907 15.7463002 16.3055135 15.7463002 15.8314898 16.5750529 13.7427907 16.5750529 13.7427907 17.8181818 16.6519549 17.8181818 19.0308935 13.6744186 17.6701521 13.6744186 17.0703921 14.7103594 14.7683721 14.7103594 14.7683721 13.8816068"></polygon>
                                    <polygon id="Shape" fill="#FFFFFF" points="10.065466 13.8816068 9.46550093 12.845666 7.15855814 12.845666 6.56372093 11.8097252 8.11009256 9.11627907 10.5171321 9.11627907 11.2130916 7.87315011 11.8967442 7.87315011 11.8967442 7.04439746 10.7343502 7.04439746 10.0383907 8.28752643 8.58596233 8.28752643 10.0131614 5.8012685 12.9223256 5.8012685 12.9223256 9.32346723 11.6873205 9.32346723 11.2087842 10.1522199 12.9223256 10.1522199 12.9223256 11.8097252 11.3642623 11.8097252 10.6533293 10.5665962 8.74123535 10.5665962 8.26721163 11.3953488 10.1799209 11.3953488 10.890854 12.6384778 12.9223256 12.6384778 12.9223256 15.7463002 10.3596028 15.7463002 10.8336265 16.5750529 12.9223256 16.5750529 12.9223256 17.8181818 10.0131614 17.8181818 7.63422279 13.6744186 8.99496419 13.6744186 9.59472419 14.7103594 11.8967442 14.7103594 11.8967442 13.8816068"></polygon>
                                </g>
                            </g>
                        </g>
                    </g>
                    <g id="Group-7-Copy-4" transform="translate(562.000000, 155.000000)">
                        <g id="Group-3-Copy-3">
                            <g id="Rectangle-3-Copy">
                                <use fill="#FFFFFF" fill-rule="evenodd" xlink:href="#path-15"></use>
                                <rect stroke="#E0E0E0" stroke-width="1" x="0.5" y="0.5" width="166" height="55"></rect>
                            </g>
                            <text id="Cloud-BigQuery" font-family="Roboto-Regular, Roboto" font-size="12" font-weight="normal" fill="#212121">
                                <tspan x="51" y="31">Cloud BigQuery</tspan>
                            </text>
                            <g id="BigQuery_128px" transform="translate(16.000000, 16.000000)">
                                <g id="BASE" transform="translate(0.000000, 0.072727)"></g>
                                <mask id="mask-17" fill="white">
                                    <use xlink:href="#path-16"></use>
                                </mask>
                                <use id="Shape" fill="url(#linearGradient-8)" xlink:href="#path-16"></use>
                                <g id="shadow" mask="url(#mask-17)" fill="#000000" opacity="0.07">
                                    <g transform="translate(8.888889, 7.345455)" id="Shape">
                                        <polygon points="15.3997778 8.78365657 7.60094949 0.984828283 4.24236364 0.085979798 1.22561616 1.2069697 0.0606868687 4.24240404 0.997414141 7.6220202 9.26761616 15.8922222 11.0226667 15.8143636"></polygon>
                                    </g>
                                </g>
                                <g id="art" mask="url(#mask-17)">
                                    <g transform="translate(8.282828, 6.739394)" id="Group">
                                        <g>
                                            <path d="M4.84842424,0.162424242 C2.26060606,0.162424242 0.162626263,2.26038384 0.162626263,4.84846465 C0.162626263,7.43628283 2.26060606,9.53426263 4.84842424,9.53426263 C7.43624242,9.53426263 9.53422222,7.43628283 9.53422222,4.84846465 C9.53424242,2.26038384 7.43626263,0.162424242 4.84842424,0.162424242 M4.84842424,8.40379798 C2.88478788,8.40379798 1.29307071,6.81208081 1.29307071,4.84844444 C1.29307071,2.88480808 2.88478788,1.29274747 4.84842424,1.29274747 C6.81206061,1.29274747 8.404,2.88480808 8.404,4.84844444 C8.404,6.81208081 6.81206061,8.40379798 4.84842424,8.40379798" id="Shape" fill="#FFFFFF"></path>
                                            <path d="M2.62420202,4.66749495 L2.62420202,6.12387879 C2.83953535,6.49410101 3.14442424,6.80472727 3.50925253,7.028 L3.50925253,4.66749495 L2.62420202,4.66749495 L2.62420202,4.66749495 Z" id="Shape" fill="#FFFFFF"></path>
                                            <path d="M4.37886869,3.43965657 L4.37886869,7.36105051 C4.52933333,7.38858586 4.68325253,7.40547475 4.84133333,7.40547475 C4.98567677,7.40547475 5.12614141,7.39028283 5.26416162,7.36729293 L5.26416162,3.43965657 L4.37886869,3.43965657 L4.37886869,3.43965657 Z" id="Shape" fill="#FFFFFF"></path>
                                            <path d="M6.21527273,5.27288889 L6.21527273,7.00246465 C6.58547475,6.76620202 6.89159596,6.44040404 7.10056566,6.05292929 L7.10056566,5.27288889 L6.21527273,5.27288889 L6.21527273,5.27288889 Z" id="Shape" fill="#FFFFFF"></path>
                                            <path d="M8.22048485,7.73468687 L7.7350303,8.22052525 C7.64939394,8.30591919 7.64939394,8.44541414 7.7350303,8.53105051 L9.57630303,10.3718586 C9.66169697,10.4574747 9.80143434,10.4574747 9.88682828,10.3718586 L10.3722828,9.88674747 C10.4574141,9.80135354 10.4574141,9.66163636 10.3722828,9.57634343 L8.53074747,7.73468687 C8.44559596,7.64941414 8.30563636,7.64941414 8.22048485,7.73468687" id="Shape" fill="#FFFFFF"></path>
                                        </g>
                                    </g>
                                </g>
                            </g>
                        </g>
                    </g>
                    <g id="Group-7-Copy-5" transform="translate(508.000000, 54.000000)">
                        <g id="Group-3-Copy-3">
                            <g id="Rectangle-3-Copy">
                                <use fill="#FFFFFF" fill-rule="evenodd" xlink:href="#path-18"></use>
                                <rect stroke="#E0E0E0" stroke-width="1" x="0.5" y="0.5" width="100" height="55"></rect>
                            </g>
                            <text id="Data-Studio" font-family="Roboto-Regular, Roboto" font-size="12" font-weight="normal" fill="#212121">
                                <tspan x="51" y="25">Data </tspan>
                                <tspan x="51" y="39">Studio</tspan>
                            </text>
                            <g id="datastudio" transform="translate(16.000000, 16.000000)" fill-rule="nonzero">
                                <g id="Data_Studio_Hex_Logo_128px_Marketing_Blue">
                                    <g id="BASE" fill="#4285F4">
                                        <path d="M5.92251429,22.1322105 L0.522514286,12.8330827 C0.0999201308,12.1054086 0.0999201308,11.2088771 0.522514286,10.481203 L5.92251429,1.18207519 C6.34356318,0.451994243 7.12491329,0.00121180688 7.97142857,6.92522618e-15 L18.7714286,6.92522618e-15 C19.6196072,-0.00298181104 20.4044848,0.445683619 20.8285714,1.17593985 L26.2285714,10.4750677 C26.6511656,11.2027418 26.6511656,12.0992733 26.2285714,12.8269474 L20.8285714,22.1260752 C20.4044848,22.8563314 19.6196072,23.3049968 18.7714286,23.302015 L7.97142857,23.302015 C7.12745931,23.3033342 6.34670006,22.8575685 5.92251429,22.1322105 Z" id="Shape"></path>
                                    </g>
                                    <g id="shadow" transform="translate(8.022857, 6.339850)" fill="#3D7BE2">
                                        <path d="M12.7974857,15.7923609 L17.5782857,7.56691729 L10.3947429,0.384481203 L8.28205714,0.0715789474 L5.66125714,0.0715789474 L0.0884571429,4.99621053 L0.0884571429,8.3195188 L0.218057143,8.4483609 L0.218057143,10.1601203 L7.03542857,16.9744361 L10.7382857,16.9744361 C11.5884764,16.9768924 12.3746101,16.5256156 12.7974857,15.7923609 Z" id="Shape"></path>
                                    </g>
                                    <g id="art" transform="translate(8.022857, 6.339850)" fill="#FFFFFF">
                                        <path d="M9.7632,0.0715789474 L7.3152,0.0715789474 L7.3152,3.48896241 C7.32156111,4.48201728 6.93344638,5.43744313 6.2352,6.14760902 C5.52960794,6.86771213 4.55975844,7.27154467 3.54857143,7.26628571 L0.0884571429,7.26628571 L0.0884571429,9.72246617 C0.0929187283,10.1848346 0.468854576,10.558572 0.933942857,10.5630075 L5.25394286,10.5630075 C8.21828571,10.5630075 10.6025143,8.31338346 10.6025143,5.27843609 L10.6025143,0.912120301 C10.5981196,0.45210514 10.2258765,0.0793178425 9.7632,0.0715789474 L9.7632,0.0715789474 Z" id="Shape"></path>
                                        <path d="M0.0884571429,0.912120301 L0.0884571429,6.63843609 L3.54857143,6.63843609 C4.39402117,6.64336608 5.20506215,6.30593182 5.79497143,5.70381955 C6.37832598,5.1103636 6.7034489,4.3125939 6.70011429,3.48282707 L6.70011429,0.0715789474 L0.940114286,0.0715789474 C0.472617721,0.0726772839 0.092961841,0.447377913 0.0884571429,0.912120301 L0.0884571429,0.912120301 Z" id="Shape"></path>
                                    </g>
                                </g>
                            </g>
                        </g>
                    </g>
                    <g id="Group-28" transform="translate(614.000000, 54.000000)">
                        <g id="Rectangle-88">
                            <use fill="#FFFFFF" fill-rule="evenodd" xlink:href="#path-19"></use>
                            <rect stroke="#E0E0E0" stroke-width="1" x="0.5" y="0.5" width="117" height="55"></rect>
                        </g>
                        <text id="Third-Party-Tools" font-family="Roboto-Regular, Roboto" font-size="12" font-weight="normal" fill="#212121">
                            <tspan x="45" y="25">Third-Party </tspan>
                            <tspan x="45" y="39">Tools</tspan>
                        </text>
                        <path d="M15,35 L34,35 L34,31 L15,31 L15,35 L15,35 Z M16.9,32 L18.8,32 L18.8,34 L16.9,34 L16.9,32 L16.9,32 Z M15,21 L15,25 L34,25 L34,21 L15,21 L15,21 Z M18.8,24 L16.9,24 L16.9,22 L18.8,22 L18.8,24 L18.8,24 Z M15,30 L34,30 L34,26 L15,26 L15,30 L15,30 Z M16.9,27 L18.8,27 L18.8,29 L16.9,29 L16.9,27 L16.9,27 Z" id="Shape" fill="#616161"></path>
                    </g>
                    <g id="Group-29" transform="translate(740.000000, 77.000000)">
                        <path d="M6.31355351,109.5 L25.5,109.5" id="Line" stroke="#616161" stroke-linecap="square"></path>
                        <circle id="Oval-25-Copy" fill="#616161" cx="3.5" cy="109.5" r="3.5"></circle>
                        <circle id="Oval-25-Copy-2" fill="#616161" cx="3.5" cy="3.5" r="3.5"></circle>
                        <path d="M26.5,55.5 L56.5,55.5" id="Line-Copy-9" stroke="#616161" stroke-linecap="square"></path>
                        <path d="M6.31355351,3.5 L25.5,3.5" id="Line-Copy-3" stroke="#616161" stroke-linecap="square"></path>
                        <path d="M25.7346059,3.4997607 L25.7346059,109.5147" id="Line" stroke="#616161" stroke-linecap="square"></path>
                    </g>
                    <text id="Ingest" font-family="Roboto-Regular, Roboto" font-size="14" font-weight="normal" fill="#616161">
                        <tspan x="200.202148" y="28">Ingest</tspan>
                    </text>
                    <text id="Process" font-family="Roboto-Regular, Roboto" font-size="14" font-weight="normal" fill="#616161">
                        <tspan x="359.248047" y="28">Process</tspan>
                    </text>
                    <text id="Analyze" font-family="Roboto-Regular, Roboto" font-size="14" font-weight="normal" fill="#616161">
                        <tspan x="517.276855" y="28">Analyze</tspan>
                    </text>
                </g>
            </g>
        </g>
    </g>
</svg>